<svg width="26" height="21" viewBox="0 0 26 21" fill="none" xmlns="http://www.w3.org/2000/svg">
<path d="M5.95028 14.217L8.13854 16.369L12.8894 21L26 8.24541L17.5394 0H8.55983L0 8.24394L3.92796 12.2245L5.95028 14.217ZM17.2477 0.685088L25.0059 8.24467L12.9901 19.9517L11.3641 18.3637L16.2112 13.6412L15.6489 13.0957L10.7102 17.9075L9.09098 16.3232L14.0297 11.5121L13.4902 10.9917L8.5621 15.7947L6.98228 14.2665L11.9104 9.46499L11.4088 8.95855L6.49129 13.7483L4.9198 12.2245L10.4291 6.83242L13.2258 9.55727L14.0456 7.89401L15.9611 9.18593L15.9626 9.18446L15.9823 9.2007L19.5693 11.4427H19.6337L13.0515 2.27009L12.2968 3.81154L9.08795 0.685088H17.2477ZM11.9801 4.45676L12.5295 4.99125L12.8295 4.32978L13.1667 3.58711L15.9551 7.37503L16.734 8.43293L17.4333 9.3823L16.4423 8.71715L13.7312 6.89443L13.0235 8.41226L13.0076 8.44621L10.8428 6.28834L10.4571 5.91257L10.1957 6.16579L4.43865 11.738L0.985778 8.25353L6.87014 2.52035L7.30279 2.1003L8.05823 1.36427L8.4386 1.00918L11.9801 4.45676Z" fill="#25006D"/>
<path d="M16.734 8.43367L15.9551 7.37577L13.1668 3.58786L12.8296 4.33053L12.5295 4.99199L11.9802 4.45676L8.43866 1.00992L8.05829 1.36501L7.30285 2.1003L6.8702 2.52036L0.98584 8.25354L4.43796 11.7373L10.195 6.16505L10.4572 5.91184L10.8429 6.28834L13.0084 8.44622L13.0243 8.41226L13.732 6.89444L16.4423 8.71715L17.4327 9.38305L16.734 8.43367Z" fill="#6300FF"/>
<path d="M17.2476 0.685089H9.08781L12.2967 3.81154L13.0514 2.27009L19.6336 11.4427H19.5692L15.983 9.19996L15.9633 9.18372L15.9617 9.18593L14.0463 7.89327L13.2257 9.55653L10.4297 6.83168L4.92041 12.2238L6.4919 13.7475L11.4094 8.95782L11.9103 9.46425L6.98213 14.2665L8.56196 15.7947L13.4908 10.9924L14.0303 11.5129L9.09159 16.324L10.7108 17.9075L15.6496 13.0957L16.2118 13.6412L11.3647 18.3637L12.99 19.9517L25.0057 8.24468L17.2476 0.685089Z" fill="#F79413"/>
</svg>
