<svg width="16" height="16" viewBox="0 0 16 16" fill="none" xmlns="http://www.w3.org/2000/svg">
<g clip-path="url(#clip0_89:985)">
<path d="M8.688 0.0337797C3.952 -0.366621 0 3.36511 0 8.00175C0 12.3501 3.472 15.8736 7.768 16.0017C12.312 16.1299 16 12.4782 16 8.00175C16 3.87762 12.856 0.386132 8.688 0.0337797ZM14.344 7.20095H11.624C11.536 5.39114 11.048 3.60535 10.16 1.97973C12.384 2.78053 14.04 4.78253 14.344 7.20095ZM7.976 1.60335C7.984 1.59534 7.992 1.58733 8 1.57132C8.008 1.57932 8.016 1.58733 8.024 1.60335C9.256 3.27702 9.92 5.22297 10.032 7.20895H5.976C6.08 5.22297 6.752 3.27702 7.976 1.60335ZM5.832 1.98773C4.944 3.61336 4.456 5.39914 4.376 7.20095H1.656C1.96 4.79054 3.608 2.78853 5.832 1.98773ZM1.656 8.80255H4.392C4.552 10.6684 5.144 12.4942 6.16 14.1359C3.776 13.4232 1.976 11.3411 1.656 8.80255ZM8.008 14.0078C6.856 12.4462 6.176 10.6524 6 8.80255H10.008C9.832 10.6524 9.152 12.4462 8.008 14.0078ZM9.848 14.1359C10.864 12.4942 11.448 10.6684 11.608 8.80255H14.344C14.024 11.3411 12.232 13.4152 9.848 14.1359Z" fill="#DADADA"/>
</g>
<defs>
<clipPath id="clip0_89:985">
<rect width="16" height="16" fill="white"/>
</clipPath>
</defs>
</svg>
